<svg id="Logo" xmlns="http://www.w3.org/2000/svg" width="65" height="26.733" viewBox="0 0 65 26.733">
  <path id="Caminho_1422" data-name="Caminho 1422" d="M37.539-111.093h4.817a2.668,2.668,0,0,0,2.267-1.259l6.647-10.635,6.647,10.635a2.668,2.668,0,0,0,2.267,1.259H65L60.183-118.8h0L53.56-129.4a2.658,2.658,0,0,0-.389-.5l-.014-.014-.014-.014a2.652,2.652,0,0,0-.7-.495l-.01,0-.041-.02-.025-.012-.021-.009a2.653,2.653,0,0,0-1.079-.228,2.653,2.653,0,0,0-1.079.228l-.021.009-.025.012-.041.02-.01,0a2.654,2.654,0,0,0-.7.495l-.014.014-.013.014a2.658,2.658,0,0,0-.389.5l-6.623,10.6h0Zm-14.262,0h4.817a2.667,2.667,0,0,0,2.267-1.259l9.254-14.806.888-1.42,1.322-2.115H37.008a2.668,2.668,0,0,0-2.267,1.26l-1.515,2.424ZM0-130.694H4.817a2.668,2.668,0,0,1,2.259,1.26L13.763-118.8l11.1-17.766a2.668,2.668,0,0,1,2.267-1.259H31.95l-15.9,25.434a2.652,2.652,0,0,1-.389.5l-.014.014-.014.014a2.656,2.656,0,0,1-.7.495l-.01,0-.041.02-.025.012-.021.009a2.653,2.653,0,0,1-1.079.228,2.652,2.652,0,0,1-1.079-.228l-.021-.009-.025-.012-.041-.02-.01,0a2.655,2.655,0,0,1-.7-.495l-.014-.014-.014-.014a2.65,2.65,0,0,1-.389-.5c-3.813-6.1-7.659-12.2-11.472-18.3" transform="translate(0 137.825)" fill="#fff"/>
</svg>
